[h264 @ 0x55aa0b37d180] Reinit context to 1280x720, pix_fmt: yuv420p
Input #0, mov,mp4,m4a,3gp,3g2,mj2, from '/var/www/html/project/media/video/original/Interventi_2023.mp4':
  Metadata:
    major_brand     : isom
    minor_version   : 512
    compatible_brands: isomiso2avc1mp41
    encoder         : https://clipchamp.com
    comment         : Create videos with https://clipchamp.com/en/video-editor - free online video editor, video compressor, video converter.
  Duration: 00:03:38.89, start: 0.000000, bitrate: 8885 kb/s
    Stream #0:0(und): Video: h264 (Constrained Baseline), 1 reference frame (avc1 / 0x31637661), yuv420p(left), 1280x720 [SAR 1:1 DAR 16:9], 8687 kb/s, 30 fps, 30 tbr, 15360 tbn, 60 tbc (default)
    Metadata:
      handler_name    : VideoHandler
    Stream #0:1(und): Audio: aac (LC) (mp4a / 0x6134706D), 44100 Hz, stereo, fltp, 192 kb/s (default)
    Metadata:
      handler_name    : SoundHandler
Input #1, png_pipe, from '/var/www/html/project/static/images/templates/logo.png':
  Duration: N/A, bitrate: N/A
    Stream #1:0: Video: png, 1 reference frame, rgba(pc), 1920x1080 [SAR 2835:2835 DAR 16:9], 25 tbr, 25 tbn, 25 tbc
[h264 @ 0x55aa0b3e0bc0] Reinit context to 1280x720, pix_fmt: yuv420p
Input #2, mov,mp4,m4a,3gp,3g2,mj2, from '/var/www/html/project/static/images/templates/Codino.mp4':
  Metadata:
    major_brand     : mp42
    minor_version   : 1
    compatible_brands: isommp41mp42
    creation_time   : 2021-07-11T07:02:58.000000Z
  Duration: 00:00:02.00, start: 0.000000, bitrate: 1007 kb/s
    Stream #2:0(ita): Audio: aac (LC) (mp4a / 0x6134706D), 44100 Hz, stereo, fltp, 102 kb/s (default)
    Metadata:
      creation_time   : 2021-07-11T07:02:58.000000Z
      handler_name    : Core Media Audio
    Stream #2:1(und): Video: h264 (High), 1 reference frame (avc1 / 0x31637661), yuv420p(tv, bt709, progressive, left), 1280x720 [SAR 1:1 DAR 16:9], 813 kb/s, 25 fps, 25 tbr, 25k tbn, 50k tbc (default)
    Metadata:
      creation_time   : 2021-07-11T07:02:58.000000Z
      handler_name    : Core Media Video
[Parsed_scale_0 @ 0x55aa0b3b9b80] w:1280 h:720 flags:'bilinear' interl:0
[Parsed_scale_2 @ 0x55aa0b3f2d00] w:1280 h:720 flags:'bilinear' interl:0
[Parsed_scale_4 @ 0x55aa0b3d9d40] w:1280 h:720 flags:'bilinear' interl:0
Stream mapping:
  Stream #0:0 (h264) -> scale
  Stream #0:1 (aac) -> concat:in0:a0
  Stream #1:0 (png) -> scale
  Stream #2:0 (aac) -> concat:in1:a0
  Stream #2:1 (h264) -> scale
  concat:out:v0 -> Stream #0:0 (libx264)
  concat:out:a0 -> Stream #0:1 (aac)
Press [q] to stop, [?] for help
[h264 @ 0x55aa0b5280c0] Reinit context to 1280x720, pix_fmt: yuv420p
[h264 @ 0x55aa0b793600] Reinit context to 1280x720, pix_fmt: yuv420p
[Parsed_scale_0 @ 0x55aa0c630880] w:1280 h:720 flags:'bilinear' interl:0
[Parsed_scale_2 @ 0x55aa0c639040] w:1280 h:720 flags:'bilinear' interl:0
[Parsed_scale_4 @ 0x55aa0c63a140] w:1280 h:720 flags:'bilinear' interl:0
[graph 0 input from stream 0:0 @ 0x55aa0c63e880] w:1280 h:720 pixfmt:yuv420p tb:1/15360 fr:30/1 sar:1/1 sws_param:flags=2
[graph 0 input from stream 1:0 @ 0x55aa0c63f900] w:1920 h:1080 pixfmt:rgba tb:1/25 fr:25/1 sar:2835/2835 sws_param:flags=2
[graph 0 input from stream 2:1 @ 0x55aa0c640980] w:1280 h:720 pixfmt:yuv420p tb:1/25000 fr:25/1 sar:1/1 sws_param:flags=2
[graph_0_in_0_1 @ 0x55aa0c641940] tb:1/44100 samplefmt:fltp samplerate:44100 chlayout:0x3
[graph_0_in_2_0 @ 0x55aa0c642a80] tb:1/44100 samplefmt:fltp samplerate:44100 chlayout:0x3
[Parsed_scale_0 @ 0x55aa0c630880] w:1280 h:720 fmt:yuv420p sar:1/1 -> w:1280 h:720 fmt:yuv420p sar:1/1 flags:0x2
[Parsed_setsar_1 @ 0x55aa0c6387c0] w:1280 h:720 sar:1/1 dar:16/9 -> sar:1/1 dar:16/9
[Parsed_scale_2 @ 0x55aa0c639040] w:1920 h:1080 fmt:rgba sar:2835/2835 -> w:1280 h:720 fmt:yuva420p sar:1/1 flags:0x2
[Parsed_setsar_3 @ 0x55aa0c639540] w:1280 h:720 sar:1/1 dar:16/9 -> sar:1/1 dar:16/9
[Parsed_overlay_6 @ 0x55aa0c63b7c0] main w:1280 h:720 fmt:yuv420p overlay w:1280 h:720 fmt:yuva420p
[Parsed_overlay_6 @ 0x55aa0c63b7c0] [framesync @ 0x55aa0c63b8e8] Selected 1/76800 time base
[Parsed_overlay_6 @ 0x55aa0c63b7c0] [framesync @ 0x55aa0c63b8e8] Sync level 2
[Parsed_scale_4 @ 0x55aa0c63a140] w:1280 h:720 fmt:yuv420p sar:1/1 -> w:1280 h:720 fmt:yuv420p sar:1/1 flags:0x2
[Parsed_setsar_5 @ 0x55aa0c63ac00] w:1280 h:720 sar:1/1 dar:16/9 -> sar:1/1 dar:16/9
[libx264 @ 0x55aa0b3f0cc0] using SAR=1/1
[libx264 @ 0x55aa0b3f0cc0] using cpu capabilities: MMX2 SSE2Fast SSSE3 SSE4.2 AVX FMA3 BMI2 AVX2
[libx264 @ 0x55aa0b3f0cc0] profile High, level 3.1
[libx264 @ 0x55aa0b3f0cc0] 264 - core 155 r2917 0a84d98 - H.264/MPEG-4 AVC codec - Copyleft 2003-2018 - http://www.videolan.org/x264.html - options: cabac=1 ref=1 deblock=1:0:0 analyse=0x3:0x113 me=hex subme=2 psy=1 psy_rd=1.00:0.00 mixed_ref=0 me_range=16 chroma_me=1 trellis=0 8x8dct=1 cqm=0 deadzone=21,11 fast_pskip=1 chroma_qp_offset=0 threads=22 lookahead_threads=5 sliced_threads=0 nr=0 decimate=1 interlaced=0 bluray_compat=0 constrained_intra=0 bframes=3 b_pyramid=2 b_adapt=1 b_bias=0 direct=1 weightb=1 open_gop=0 weightp=1 keyint=250 keyint_min=25 scenecut=40 intra_refresh=0 rc_lookahead=10 rc=crf mbtree=1 crf=18.0 qcomp=0.60 qpmin=0 qpmax=69 qpstep=4 ip_ratio=1.40 aq=1:1.00
Output #0, mp4, to '/var/www/html/project/media/video/watermarks/Interventi_2023.mp4':
  Metadata:
    major_brand     : isom
    minor_version   : 512
    compatible_brands: isomiso2avc1mp41
    comment         : Create videos with https://clipchamp.com/en/video-editor - free online video editor, video compressor, video converter.
    encoder         : Lavf58.29.100
    Stream #0:0: Video: h264 (libx264), 1 reference frame (avc1 / 0x31637661), yuv420p(progressive), 1280x720 [SAR 1:1 DAR 16:9], q=-1--1, 30 fps, 15360 tbn, 30 tbc (default)
    Metadata:
      encoder         : Lavc58.54.100 libx264
    Side data:
      cpb: bitrate max/min/avg: 0/0/0 buffer size: 0 vbv_delay: -1
    Stream #0:1: Audio: aac (LC) (mp4a / 0x6134706D), 44100 Hz, stereo, fltp, delay 1024, 128 kb/s (default)
    Metadata:
      encoder         : Lavc58.54.100 aac
[Parsed_overlay_6 @ 0x55aa0c63b7c0] [framesync @ 0x55aa0c63b8e8] Sync level 0
[Parsed_concat_7 @ 0x55aa0c63c900] EOF on in0:v0, 1 streams left in segment.
[Parsed_concat_7 @ 0x55aa0c63c900] EOF on in0:a0, 0 streams left in segment.
[Parsed_concat_7 @ 0x55aa0c63c900] Segment finished at pts=218866666
[Parsed_concat_7 @ 0x55aa0c63c900] EOF on in1:a0, 1 streams left in segment.
[Parsed_concat_7 @ 0x55aa0c63c900] EOF on in1:v0, 0 streams left in segment.
[Parsed_concat_7 @ 0x55aa0c63c900] Segment finished at pts=220885351
No more output streams to write to, finishing.
frame= 6616 fps= 88 q=-1.0 Lsize=  140418kB time=00:03:40.89 bitrate=5207.5kbits/s speed=2.92x    
[AVIOContext @ 0x55aa0b37b440] Statistics: 0 seeks, 148 writeouts
video:136743kB audio:3444kB subtitle:0kB other streams:0kB global headers:0kB muxing overhead: 0.165093%
Input file #0 (/var/www/html/project/media/video/original/Interventi_2023.mp4):
  Input stream #0:0 (video): 6566 packets read (237687464 bytes); 6566 frames decoded; 
  Input stream #0:1 (audio): 9427 packets read (5253469 bytes); 9425 frames decoded (9651200 samples); 
  Total: 15993 packets (242940933 bytes) demuxed
Input file #1 (/var/www/html/project/static/images/templates/logo.png):
  Input stream #1:0 (video): 1 packets read (111578 bytes); 1 frames decoded; 
  Total: 1 packets (111578 bytes) demuxed
Input file #2 (/var/www/html/project/static/images/templates/Codino.mp4):
  Input stream #2:0 (audio): 89 packets read (26579 bytes); 87 frames decoded (89024 samples); 
  Input stream #2:1 (video): 50 packets read (203365 bytes); 50 frames decoded; 
  Total: 139 packets (229944 bytes) demuxed
Output file #0 (/var/www/html/project/media/video/watermarks/Interventi_2023.mp4):
  Output stream #0:0 (video): 6616 frames encoded; 6616 packets muxed (140024406 bytes); 
  Output stream #0:1 (audio): 9513 frames encoded (9741044 samples); 9514 packets muxed (3526473 bytes); 
  Total: 16130 packets (143550879 bytes) muxed
[AVIOContext @ 0x55aa0b3ec440] Statistics: 2 seeks, 551 writeouts
[libx264 @ 0x55aa0b3f0cc0] frame I:29    Avg QP:13.82  size:104498
[libx264 @ 0x55aa0b3f0cc0] frame P:2169  Avg QP:17.73  size: 37539
[libx264 @ 0x55aa0b3f0cc0] frame B:4418  Avg QP:20.66  size: 12578
[libx264 @ 0x55aa0b3f0cc0] consecutive B-frames:  7.8%  6.0% 10.5% 75.7%
[libx264 @ 0x55aa0b3f0cc0] mb I  I16..4: 28.7% 18.4% 52.9%
[libx264 @ 0x55aa0b3f0cc0] mb P  I16..4: 17.1% 14.6%  4.9%  P16..4: 29.8% 12.8%  9.9%  0.0%  0.0%    skip:11.0%
[libx264 @ 0x55aa0b3f0cc0] mb B  I16..4:  4.9%  4.1%  0.6%  B16..8: 20.8%  7.7%  1.6%  direct:19.2%  skip:41.1%  L0:38.2% L1:34.3% BI:27.5%
[libx264 @ 0x55aa0b3f0cc0] 8x8 transform intra:40.3% inter:22.8%
[libx264 @ 0x55aa0b3f0cc0] coded y,uvDC,uvAC intra: 40.6% 53.9% 15.5% inter: 22.7% 27.8% 1.6%
[libx264 @ 0x55aa0b3f0cc0] i16 v,h,dc,p: 53% 25% 16%  6%
[libx264 @ 0x55aa0b3f0cc0] i8 v,h,dc,ddl,ddr,vr,hd,vl,hu: 24% 33% 24%  3%  3%  3%  4%  3%  4%
[libx264 @ 0x55aa0b3f0cc0] i4 v,h,dc,ddl,ddr,vr,hd,vl,hu: 24% 26% 15%  5%  6%  6%  7%  5%  6%
[libx264 @ 0x55aa0b3f0cc0] i8c dc,h,v,p: 53% 23% 18%  6%
[libx264 @ 0x55aa0b3f0cc0] Weighted P-Frames: Y:33.7% UV:20.5%
[libx264 @ 0x55aa0b3f0cc0] kb/s:5071.79
[aac @ 0x55aa0b526d40] Qavg: 757.949
[AVIOContext @ 0x55aa0b3843c0] Statistics: 243169735 bytes read, 2 seeks
[AVIOContext @ 0x55aa0b37eb80] Statistics: 111578 bytes read, 0 seeks
[AVIOContext @ 0x55aa0b3b6e40] Statistics: 1530915 bytes read, 42 seeks
